<?xml version="1.0" encoding="UTF-8" standalone="no"?>
<!-- Created with Inkscape (http://www.inkscape.org/) -->

<svg
   width="1453.4127"
   height="849.33392"
   viewBox="0 0 384.54881 224.7196"
   version="1.1"
   id="svg1"
   inkscape:export-filename="TravelLowRes.png"
   inkscape:export-xdpi="2970.6101"
   inkscape:export-ydpi="2970.6101"
   sodipodi:docname="TravelLowRes.svg"
   inkscape:version="1.3 (0e150ed6c4, 2023-07-21)"
   xmlns:inkscape="http://www.inkscape.org/namespaces/inkscape"
   xmlns:sodipodi="http://sodipodi.sourceforge.net/DTD/sodipodi-0.dtd"
   xmlns="http://www.w3.org/2000/svg"
   xmlns:svg="http://www.w3.org/2000/svg">
  <sodipodi:namedview
     id="namedview1"
     pagecolor="#ffffff"
     bordercolor="#000000"
     borderopacity="0.25"
     inkscape:showpageshadow="2"
     inkscape:pageopacity="0.0"
     inkscape:pagecheckerboard="0"
     inkscape:deskcolor="#d1d1d1"
     inkscape:document-units="mm"
     showgrid="false"
     inkscape:zoom="5.6851147"
     inkscape:cx="9.9382339"
     inkscape:cy="29.11111"
     inkscape:window-width="2560"
     inkscape:window-height="1351"
     inkscape:window-x="251"
     inkscape:window-y="-9"
     inkscape:window-maximized="1"
     inkscape:current-layer="layer1" />
  <defs
     id="defs1" />
  <g
     inkscape:label="Layer 1"
     inkscape:groupmode="layer"
     id="layer1"
     transform="translate(144.69334,150.96436)">
    <path
       style="font-size:352.778px;line-height:1;font-family:Blowfisher;-inkscape-font-specification:'Blowfisher, Normal';text-align:center;text-anchor:middle;stroke-width:5;paint-order:stroke fill markers"
       d="m -115.05999,72.696913 q -1.05833,-1.411112 -0.70555,-5.997227 0.35277,-4.233336 1.05833,-9.172228 1.05833,-4.938892 2.11667,-9.172228 1.05833,-4.586115 1.41111,-5.997227 2.11667,-8.81945 4.58611,-15.87501 2.46945,-7.055561 4.9389,-14.111121 2.82222,-7.4083382 5.997222,-15.5222326 3.175003,-8.4666724 7.408339,-19.4027904 1.058334,-2.469447 3.880558,-10.583341 3.175002,-8.466672 7.408338,-19.755569 4.233336,-11.288896 8.819451,-23.636127 4.586114,-12.700008 8.466672,-23.636122 4.233336,-10.93612 6.702782,-18.34446 2.469446,-7.76112 2.469446,-8.81945 0,-1.41111 0,-2.11667 0.352778,-0.70556 -1.058334,-0.70556 -1.76389,0 -7.408338,1.41112 -5.29167,1.41111 -17.638901,4.93889 -15.522232,4.23333 -26.811125,7.40834 -10.93612,2.82222 -18.69724,4.58611 -7.76112,1.76389 -12.34723,2.82222 -4.23334,0.70556 -6.70278,0.70556 -3.52778,0 -3.52778,-2.46945 0.35278,-3.52778 10.23056,-7.76111 9.87779,-4.58612 23.63613,-8.46667 13.75834,-4.23334 27.869461,-6.70279 14.463899,-2.82222 23.283349,-2.82222 5.29167,0 7.761116,1.05833 1.058334,0.35278 1.76389,0.35278 0.705556,0 2.116668,-0.35278 1.763891,-0.35277 5.997227,-1.41111 7.761116,-2.11667 18.697234,-4.58611 11.288897,-2.46945 23.63612751,-4.58612 12.34723049,-2.11666 25.04723949,-3.52778 13.052786,-1.41111 23.988905,-1.41111 11.994452,0 20.461124,2.11667 7.408339,1.76389 10.230563,5.64445 3.175002,3.52778 1.058334,7.76111 -1.058334,1.41112 -3.52778,3.52778 -2.116668,2.11667 -4.586114,4.23334 -2.469446,1.76389 -4.938893,3.52778 -2.116668,1.76389 -3.175002,2.46945 -1.058334,1.05833 -1.411112,1.05833 -0.705556,0 -1.058334,-0.35278 -1.411112,-1.41111 1.058334,-3.52778 2.822224,-2.46944 6.350004,-4.93889 3.527781,-2.82222 6.350005,-5.29167 2.822224,-2.82222 2.116668,-5.29167 -1.411112,-3.52778 -9.877785,-5.29167 -8.113894,-2.11667 -20.461124,-2.11667 -3.527781,0 -7.055561,0.35278 -3.175002,0 -7.05556,0.35278 -11.994453,1.05833 -26.1055732,3.52778 -14.1111206,2.11667 -26.4583508,4.93889 -12.347231,2.46945 -20.461125,4.58611 -8.113895,1.76389 -8.113895,2.46945 1.411113,5.29167 -1.411112,11.99445 -2.822224,6.70278 -5.29167,13.40557 -6.702782,17.991676 -12.700008,35.630577 -5.644449,17.286122 -11.641675,32.808355 -2.116668,5.29167 -2.469446,6.350004 0,0.705556 0,1.411112 0.352778,0.352778 0.352778,2.469446 0.352778,1.76389 -1.058334,9.172229 -3.880558,22.2250148 -10.936118,43.744474 -6.702783,21.166681 -15.522235,41.627805 -2.46944,6.350005 -5.29167,6.350005 -0.70555,0 -1.76389,-1.058334 z m 27.163909,-87.13617 q -7.055561,16.5805667 -12.347229,32.102799 -4.93889,15.169455 -7.76112,26.811129 -2.82222,11.641675 -3.88056,17.991679 -1.05833,6.702783 -0.35277,5.644448 0.70555,-0.352778 2.82222,-6.702782 2.46945,-5.997226 5.29167,-14.11112 3.175,-8.466673 5.997226,-16.580567 3.175002,-8.466672 4.586114,-13.758343 4.586115,-14.1111203 6.702783,-25.0472388 2.116668,-10.9361182 2.822224,-14.4638982 0.352778,-1.411112 -0.352778,0.352778 -0.705556,1.411112 -3.52778,7.761116 z m -51.152809,-97.366733 q 1.76389,0 8.46667,-1.41111 6.70278,-1.41111 15.52223,-3.52778 8.81945,-2.46945 18.697236,-4.93889 10.230563,-2.82223 18.344457,-5.29167 8.466673,-2.46945 14.111121,-3.88056 5.644448,-1.76389 5.997226,-2.11667 0.352778,-0.35278 -1.058334,-0.35278 -3.175002,0 -12.700009,1.41111 -9.172228,1.41112 -20.813902,3.88056 -11.641675,2.46945 -23.636125,5.99723 -11.64168,3.52778 -19.75557,7.76111 -4.58612,2.46945 -3.175,2.46945 z m 134.7611983,74.78894 q -3.1750021,2.116668 -6.7027823,3.880558 -3.52778,1.76389 -7.05556,1.76389 -3.880558,0 -6.350005,-2.469446 -2.822224,-2.822224 -2.822224,-7.05556 0.352778,-4.233336 1.411112,-8.113895 1.411112,-4.233336 2.116668,-6.702782 0.705557,-2.469446 -1.058334,-1.76389 -2.116668,1.058334 -6.702782,5.644448 -4.233336,4.233337 -9.525006,10.936119 -5.29167,6.350004 -10.936119,14.11112 -5.29167,7.761117 -9.172228,15.875011 -2.822224,5.6444483 -3.880558,5.6444483 0,0 -1.058334,-1.058334 -1.058334,-1.058334 1.058334,-9.1722283 2.116668,-8.466672 5.644448,-17.991679 3.175002,-9.525006 6.702782,-17.286123 3.880558,-8.113894 6.350005,-8.113894 1.76389,0 1.76389,1.411112 0.352778,1.058334 -0.705556,3.175002 -0.705556,1.76389 -2.116669,3.880558 -1.058334,1.76389 -2.116668,3.175003 -1.76389,2.469446 -3.880558,6.702782 -1.76389,4.233336 -3.175002,8.81945 -1.76389,4.938892 -3.175002,10.583341 7.408338,-11.288897 14.111121,-20.108347 5.997226,-7.761117 11.994452,-13.758343 6.350004,-6.350004 10.230562,-6.350004 1.763891,0 2.469447,0.705556 1.058334,1.058334 1.058334,2.822224 0,1.411112 -1.411112,5.29167 -1.411112,4.233336 -2.116669,7.761117 -0.352778,3.175002 -0.352778,4.938892 1.058335,4.938892 5.291671,4.938892 4.233336,0 9.8777841,-3.52778 5.9972263,-3.880558 9.17222843,-5.997226 3.52778017,1.411112 0.70555607,3.52778 -2.8222242,1.76389 -5.6444483,3.880558 z m 85.7251957,-3.880558 q -2.822224,3.52778 -7.408338,8.81945 -4.233336,4.938892 -9.525006,9.525007 -5.291671,4.233336 -10.936119,7.408338 -5.29167,3.175002 -10.58334,3.175002 -5.997227,0 -9.525007,-4.586114 -3.52778,-4.938892 -4.233336,-15.169455 -7.408338,4.938892 -12.347231,8.466673 -4.938892,3.52778 -8.4666719,5.997226 -3.1750021,2.469446 -5.6444482,3.880558 -2.46944614,1.058334 -4.9388922,1.058334 -4.9388923,0.352778 -6.3500043,-3.175002 -1.4111121,-3.52778 -1.4111121,-6.350004 0,-4.938893 3.1750022,-11.288897 2.8222241,-6.350004 7.40833827,-11.641674 4.93889223,-5.644449 10.93611823,-9.172229 6.350005,-3.880558 12.700009,-3.880558 8.466672,0 9.172228,5.997226 0.705556,5.997227 -3.175002,13.405565 -0.705556,1.76389 -0.705556,2.116668 0,0.352778 0.705556,0 1.058334,-0.352778 1.76389,0 1.058334,0.352778 0.705556,2.469446 0,2.116668 0,4.938892 0,2.469446 0.705556,5.644449 1.058334,2.822224 3.880558,5.644448 2.469446,2.469446 5.997227,2.469446 4.586114,0 9.525006,-3.175002 5.29167,-3.175002 10.230562,-7.761117 5.291671,-4.586114 9.525007,-9.525006 4.586114,-5.29167 7.761116,-8.81945 1.76389,0.705556 1.76389,1.76389 0,0.705556 -0.705556,1.76389 z m -87.8417255,19.755569 q 0.352778,5.644448 3.8805581,5.644448 2.82222416,0 7.0555603,-2.822224 4.2333362,-3.175002 8.8194501,-6.702783 8.466673,-6.350004 10.230563,-7.408338 1.76389,-1.058334 1.76389,-1.76389 0,-1.411112 2.469446,-6.350004 2.469446,-4.938892 2.469446,-9.172229 0,-4.938892 -5.997226,-4.938892 -5.29167,0 -10.936119,3.175002 -5.2916699,3.175002 -9.8777841,8.113895 -4.23333619,4.938892 -7.0555603,10.936118 -2.8222241,5.997226 -2.8222241,11.288897 z M 113.18748,-41.603164 q 0.35278,3.880558 3.175,6.350004 3.175,2.116668 7.76112,2.116668 2.46944,0 5.64444,-1.058334 5.29167,-2.116668 8.1139,-4.586114 3.175,-2.822224 6.35,-5.644448 4.23334,0.352778 1.76389,2.822224 -4.93889,4.938892 -10.23056,8.466672 -4.93889,3.175002 -12.70001,3.175002 -3.52778,0 -4.93889,-0.705556 -4.58611,-1.76389 -5.99723,-4.586114 -1.41111,-3.175002 -2.11666,-2.822224 0,0 -2.46945,3.175002 -2.11667,3.175002 -5.29167,7.761116 -3.175003,4.233337 -7.055561,8.819451 -3.527781,4.586114 -7.055561,7.408338 -2.116668,1.7638902 -4.233336,1.7638902 -2.116668,0 -3.52778,-2.1166682 -1.411112,-2.469446 -2.116668,-5.997226 -0.705556,-3.52778 -0.705556,-7.761117 -0.352778,-4.233336 0.352778,-8.113894 0.352778,-3.175002 1.411112,-7.05556 1.058334,-4.233336 2.116668,-7.761116 1.058334,-3.527781 2.116668,-5.997227 1.411112,-2.469446 2.116668,-2.822224 0.352778,-0.352778 1.058334,-0.352778 0.705556,0 1.058334,1.058334 0.705556,0.705556 0,1.411112 -1.76389,1.76389 -3.52778,7.761117 -1.76389,5.644448 -2.822224,12.34723 -0.705556,6.350004 -0.705556,12.700009 0.352778,5.997226 2.469446,8.81945 0,0.352778 0.705556,0.352778 1.411112,0 5.29167,-4.233336 4.233337,-4.233336 8.466673,-9.525007 4.586115,-5.644448 8.113895,-11.288896 3.52778,-5.644448 3.88056,-8.466672 0.70555,-4.233337 2.11667,-8.113895 1.41111,-4.233336 4.23333,-7.05556 2.82223,-3.880558 5.29167,-3.880558 1.76389,0 2.11667,2.116668 0.35278,1.76389 -0.70556,4.586114 -1.05833,2.116668 -2.82222,4.586114 -1.41111,2.469446 -3.175,4.938892 -1.41111,2.469447 -2.46945,4.586115 -1.05833,1.76389 -1.05833,2.822224 z m 4.93889,-16.933345 q -1.05833,1.411112 -2.46945,4.233336 -1.41111,2.469446 -0.70555,2.116668 0,0 0.70555,-1.058334 1.05834,-1.411112 1.76389,-2.822224 0.70556,-1.411112 1.41112,-2.469446 0.70555,-1.411112 0.35277,-1.411112 l -0.35277,0.352778 -0.35278,0.352778 q 0,0.352778 -0.35278,0.705556 z m 27.51659,19.402791 q -1.05834,4.233336 -1.41112,9.877784 -0.35277,5.291671 2.82223,8.113895 0.35278,0.352778 1.76389,0.352778 3.175,0 8.11389,-3.175002 5.29167,-3.175003 10.23057,-7.408339 5.29167,-4.586114 9.525,-9.172228 4.58612,-4.586114 6.35001,-7.408338 0,0 2.11666,-7.761117 2.46945,-7.761116 5.99723,-19.050013 3.88056,-11.641674 8.81945,-24.694461 5.29167,-13.405561 10.93612,-24.694461 5.64445,-11.64167 11.64167,-19.05001 6.35001,-7.76112 11.99446,-7.76112 5.64444,0 5.29167,8.81945 -0.70556,10.23056 -5.99723,22.93057 -4.93889,12.34723 -12.34723,24.694464 -7.40834,12.34723 -15.52223,23.636127 -8.1139,11.288896 -15.16946,19.40279 -1.76389,2.116668 -2.82222,3.175002 -1.05834,1.058335 -1.76389,2.822225 -0.35278,1.411112 -1.05834,4.586114 -0.35277,2.822224 -1.41111,8.466672 -0.35278,2.469446 -1.05833,6.702782 -0.35278,3.880559 -0.35278,8.466673 0,4.586114 0.70556,8.4666722 1.05833,3.8805582 3.175,5.6444482 2.46944,1.7638901 4.58611,1.7638901 4.58612,0 10.23056,-4.9388922 5.99723,-4.9388923 11.64168,-11.6416743 5.99723,-7.055561 11.2889,-14.111121 5.64444,-7.408338 9.17222,-12.34723 1.41112,0.352778 2.11667,0.705556 0.70556,0.352778 -0.35278,2.116668 -0.70555,1.411112 -3.175,4.586114 -2.11667,3.175002 -7.05556,9.525006 -2.46944,3.527781 -6.70278,8.466673 -3.88056,4.938892 -8.46667,9.8777842 -4.58612,4.5861142 -9.52501,8.1138943 -4.93889,3.1750022 -9.52501,3.1750022 -2.11666,0 -3.175,-0.3527781 -6.35,-2.46944606 -7.76111,-9.8777844 -1.05834,-7.7611162 -0.35278,-14.8166762 0.35278,-3.527781 1.05833,-9.525007 0.70556,-6.350004 1.41111,-8.113894 0.35278,-1.058334 -2.82222,2.469446 -3.175,3.175002 -8.11389,8.113894 -4.9389,4.586114 -10.58335,8.819451 -5.64444,3.880558 -10.58334,3.880558 -4.93889,0 -7.40833,-5.29167 -2.46945,-4.938893 -1.05834,-11.994453 1.41111,-7.408338 4.93889,-14.111121 3.52778,-6.702782 8.1139,-11.288896 4.58611,-4.938892 8.81945,-4.938892 4.23334,0 4.23334,3.52778 0.35277,3.52778 -2.46945,8.113894 -2.46945,4.233336 -7.05556,8.113895 -4.23334,3.52778 -9.17223,3.880558 h -1.41111 q -0.70556,0 -1.41111,2.116668 z m 90.66395,-106.891742 q -0.35278,-1.41111 -1.41112,-1.41111 -3.88055,-0.35278 -8.46667,4.93889 -4.23333,4.9389 -8.81945,13.40557 -4.23333,8.11389 -8.81945,17.99168 -4.23334,9.87778 -7.76112,19.402788 -3.52778,9.525006 -6.35,17.286122 -2.46945,7.761117 -3.52778,11.288897 -2.46945,8.466672 -2.46945,8.466672 0.35278,0 3.52778,-4.233336 6.35001,-7.761116 12.70001,-16.580567 6.70279,-9.172228 12.34723,-18.697234 5.99723,-9.877782 10.58334,-19.755572 4.58612,-10.23056 7.05556,-19.75557 0.70556,-3.175 1.05834,-7.05556 0.70555,-3.88055 0.35278,-5.29167 z m -73.73061,84.666727 q -1.41111,0 -3.88056,2.116668 -2.46944,2.116668 -4.93889,4.938892 -2.46945,2.469446 -4.23334,5.29167 -1.76389,2.822225 -1.76389,4.233337 0,1.058334 4.23334,-1.058334 4.58611,-2.469447 7.40834,-5.997227 1.76389,-1.76389 2.82222,-4.233336 1.41111,-2.822224 1.41111,-3.880558 0,-1.411112 -1.05833,-1.411112 z"
       id="text4"
       aria-label="Travel" />
  </g>
</svg>
